<?xml version="1.0" encoding="UTF-8"?>
<svg id="_레이어_2" data-name="레이어 2" xmlns="http://www.w3.org/2000/svg" viewBox="0 0 768.3 192">
  <defs>
    <style>
      .cls-1 {
        fill: #2962ff;
      }
    </style>
  </defs>
  <g id="_레이어_1-2" data-name="레이어 1">
    <path d="M139.83,167.25L0,109.01v-25.81L104.6,41.17v26.67L30.83,94.61v2.99l110.6,44.05-1.61,25.6Zm-25.91,24.75L198.07,0h26.77l-84.26,192h-26.66Zm116.49-41.49v-26.67l72.27-26.24v-2.99l-109.74-43.52V24.75l141.11,58.45v25.81l-103.64,41.49Z"/>
    <g>
      <path class="cls-1" d="M475.13,105.25l13.26,7.4c-2.98,11.33-9,20.1-18.05,26.33-9.06,6.23-19.47,9.34-31.24,9.34-15.43,0-27.81-5-37.13-15.01-9.33-10.01-13.99-22.39-13.99-37.13,0-16.16,4.69-29.03,14.06-38.6,9.38-9.57,21.61-14.36,36.69-14.36,13.33,0,24.54,3.64,33.62,10.91v-9.3h13.18v32.74h-13.18c-2.93-6.64-7.45-11.78-13.55-15.42-6.1-3.64-12.52-5.46-19.26-5.46-10.16,0-18.49,3.66-25.01,10.99-6.52,7.32-9.78,16.58-9.78,27.76s3.49,20.85,10.47,28.12c6.98,7.28,15.26,10.91,24.83,10.91,7.86,0,15.01-2.53,21.46-7.58s10.99-12.27,13.62-21.64Z"/>
      <path class="cls-1" d="M501.28,111.26c0-10.94,3.61-19.91,10.84-26.92,7.23-7.01,16.04-10.51,26.44-10.51s18.97,3.46,26.29,10.36c7.32,6.91,10.99,15.93,10.99,27.06s-3.65,20.17-10.95,27.1c-7.3,6.93-16.08,10.4-26.33,10.4s-19.4-3.52-26.55-10.55c-7.15-7.03-10.73-16.01-10.73-26.95Zm14.72-.04c0,7,2.18,12.73,6.56,17.21,4.37,4.47,9.7,6.71,16,6.71s11.75-2.26,16.08-6.78c4.32-4.52,6.48-10.23,6.48-17.13s-2.2-12.67-6.59-17.17c-4.39-4.5-9.72-6.75-15.97-6.75s-11.94,2.3-16.19,6.89c-4.25,4.59-6.37,10.27-6.37,17.02Z"/>
    </g>
    <g>
      <path d="M633.03,146.93h-40.36v-24.39h7.76l19.12-53.1h-8.2v-24.39h73.24v24.39h-8.2l19.48,53.1h7.47v24.39h-53.17v-22.34h8.94l-3.88-12.82h-26.07l-4.47,12.82h8.35v22.34Zm9.59-76.03l-9.59,28.2h18.24l-8.64-28.2Z"/>
      <path d="M768.3,146.93h-58.08v-24.39h9.38v-53.1h-9.38v-24.39h58.08v24.39h-9.3v53.1h9.3v24.39Z"/>
    </g>
  </g>
</svg>