<?xml version="1.0" encoding="UTF-8"?>
<svg id="_레이어_2" data-name="레이어 2" xmlns="http://www.w3.org/2000/svg" viewBox="0 0 170.9 268.35">
  <defs>
    <style>
      .cls-1 {
        fill: #fff;
      }

      .cls-2 {
        fill: #e2e2e2;
      }

      .cls-3 {
        fill: #f41943;
      }

      .cls-4 {
        fill: #c6123d;
      }

      .cls-5 {
        fill: #c3dbda;
      }

      .cls-6 {
        fill: #ebf2f2;
      }
    </style>
  </defs>
  <g id="_레이어_1-2" data-name="레이어 1">
    <path class="cls-3" d="M143.14,145.47v99.6c0,6.51-7.21,10.43-12.7,6.92l-24.39-15.68-20.6-13.25-20.61,13.25-24.39,15.68c-5.48,3.5-12.69-.41-12.69-6.92v-99.6h115.38Z"/>
    <polygon class="cls-6" points="106.05 145.47 106.05 236.31 85.45 223.07 64.84 236.31 64.84 145.47 106.05 145.47"/>
    <path class="cls-4" d="M143.14,145.47v12.84c-7.93,5.47-20.9,12.93-37.09,16.86v-29.7h37.09Z"/>
    <path class="cls-5" d="M106.05,145.47v29.7c-6.8,1.66-14.17,2.69-21.96,2.69-6.8,0-13.24-.8-19.24-2.12v-30.26h41.21Z"/>
    <path class="cls-4" d="M64.84,145.47v30.26c-15.96-3.53-28.82-10.76-37.08-16.48v-13.79h37.08Z"/>
    <circle class="cls-6" cx="85.45" cy="85.45" r="85.45"/>
    <circle class="cls-5" cx="85.45" cy="85.45" r="77.85"/>
    <path class="cls-6" d="M158.53,85.45c0,40.3-32.78,73.09-73.08,73.09-11.43,0-22.25-2.63-31.89-7.33-10.06-4.9-18.83-12.04-25.67-20.76-3.12-3.98-5.84-8.3-8.09-12.89-4.76-9.69-7.44-20.6-7.44-32.11,0-8.54,1.47-16.73,4.17-24.35,8.13-22.96,27.44-40.67,51.34-46.59,5.63-1.4,11.52-2.14,17.58-2.14,13.48,0,26.12,3.67,36.97,10.06,4.84,2.85,9.32,6.24,13.37,10.09,7.63,7.26,13.7,16.15,17.64,26.1,3.3,8.31,5.11,17.36,5.11,26.83Z"/>
    <path class="cls-1" d="M122.42,22.42L19.79,117.55c-4.76-9.7-7.44-20.6-7.44-32.11,0-8.54,1.47-16.73,4.17-24.35L67.87,14.5c5.63-1.4,11.52-2.14,17.58-2.14,13.48,0,26.12,3.67,36.97,10.06Z"/>
    <path class="cls-1" d="M153.43,58.62L53.55,151.2c-10.06-4.9-18.83-12.04-25.67-20.76L135.79,32.51c7.63,7.26,13.7,16.15,17.64,26.11Z"/>
    <ellipse class="cls-2" cx="85.45" cy="262.99" rx="83.95" ry="5.36"/>
  </g>
</svg>